<svg width="196" height="72" viewBox="0 0 196 72" fill="none" xmlns="http://www.w3.org/2000/svg">
<path d="M0.0290222 23.5235L8.71298 14.3825C9.86098 13.1755 10.737 12.2005 11.341 11.4555C11.945 10.7115 12.402 9.99045 12.712 9.29345C13.023 8.59645 13.178 7.86745 13.178 7.10545C13.178 6.26145 12.955 5.51245 12.51 4.85545C12.065 4.19945 11.458 3.68945 10.691 3.32645C9.92301 2.96345 9.065 2.78145 8.116 2.78145C7.12 2.78145 6.24698 2.98145 5.49698 3.37945C4.74698 3.77745 4.17002 4.34045 3.76602 5.06745C3.36202 5.79445 3.16 6.62645 3.16 7.56345H0.171967C0.159967 6.08645 0.502982 4.78045 1.19998 3.64345C1.89698 2.50745 2.86101 1.62245 4.09201 0.989452C5.32301 0.356452 6.69899 0.040451 8.22299 0.040451C9.73499 0.040451 11.091 0.35145 12.292 0.97245C13.493 1.59445 14.434 2.44345 15.113 3.52145C15.793 4.60045 16.133 5.79545 16.133 7.10745C16.133 8.08045 15.957 9.00845 15.606 9.89345C15.254 10.7785 14.666 11.7565 13.839 12.8295C13.012 13.9025 11.832 15.2285 10.297 16.8105L4.46097 22.8225V23.0335H16.59V25.8454H0.0639954L0.0290222 23.5235Z" fill="white"/>
<path d="M24.717 24.6655C23.387 23.6455 22.373 22.1585 21.676 20.2005C20.979 18.2435 20.63 15.8825 20.63 13.1165C20.63 10.3865 20.982 8.03945 21.685 6.07645C22.388 4.11445 23.408 2.61645 24.744 1.58545C26.08 0.554453 27.674 0.0384521 29.525 0.0384521C31.376 0.0384521 32.97 0.554453 34.306 1.58545C35.642 2.61645 36.661 4.11445 37.365 6.07645C38.068 8.03945 38.42 10.3865 38.42 13.1165C38.42 15.8825 38.071 18.2435 37.374 20.2005C36.677 22.1585 35.66 23.6455 34.324 24.6655C32.988 25.6855 31.388 26.1945 29.525 26.1945C27.65 26.1955 26.047 25.6855 24.717 24.6655ZM32.654 22.1875C33.521 21.3905 34.183 20.2255 34.64 18.6895C35.097 17.1545 35.326 15.2965 35.326 13.1175C35.326 10.9385 35.097 9.07445 34.64 7.52745C34.183 5.98045 33.521 4.80245 32.654 3.99445C31.787 3.18645 30.744 2.78145 29.525 2.78145C28.306 2.78145 27.26 3.18545 26.387 3.99445C25.514 4.80345 24.846 5.98045 24.383 7.52745C23.92 9.07445 23.689 10.9375 23.689 13.1175C23.689 15.2975 23.918 17.1545 24.375 18.6895C24.832 20.2255 25.497 21.3905 26.37 22.1875C27.243 22.9845 28.295 23.3825 29.525 23.3825C30.744 23.3825 31.787 22.9845 32.654 22.1875Z" fill="white"/>
<path d="M42.603 23.5235L51.287 14.3825C52.435 13.1755 53.311 12.2005 53.915 11.4555C54.519 10.7115 54.976 9.99045 55.286 9.29345C55.597 8.59645 55.752 7.86745 55.752 7.10545C55.752 6.26145 55.529 5.51245 55.084 4.85545C54.639 4.19945 54.032 3.68945 53.265 3.32645C52.497 2.96345 51.639 2.78145 50.69 2.78145C49.694 2.78145 48.821 2.98145 48.071 3.37945C47.321 3.77745 46.744 4.34045 46.34 5.06745C45.936 5.79445 45.734 6.62645 45.734 7.56345H42.746C42.734 6.08645 43.077 4.78045 43.774 3.64345C44.471 2.50745 45.435 1.62245 46.666 0.989452C47.897 0.356452 49.273 0.040451 50.797 0.040451C52.309 0.040451 53.665 0.35145 54.866 0.97245C56.067 1.59445 57.008 2.44345 57.687 3.52145C58.367 4.60045 58.707 5.79545 58.707 7.10745C58.707 8.08045 58.531 9.00845 58.18 9.89345C57.828 10.7785 57.24 11.7565 56.413 12.8295C55.586 13.9025 54.406 15.2285 52.871 16.8105L47.035 22.8225V23.0335H59.164V25.8454H42.641L42.603 23.5235Z" fill="white"/>
<path d="M62.589 18.0385L74.05 0.39045H77.952V17.8635H81.503V20.6404H77.952V25.8434H74.929V20.6404H62.589V18.0385ZM74.929 17.8635V4.39845H74.613L66 17.6525V17.8635H74.929Z" fill="white"/>
<path d="M96.656 14.5235H85.511V11.7465H96.656V14.5235Z" fill="white"/>
<path d="M104.786 24.6655C103.456 23.6455 102.442 22.1585 101.745 20.2005C101.048 18.2435 100.699 15.8825 100.699 13.1165C100.699 10.3865 101.051 8.03945 101.754 6.07645C102.457 4.11445 103.477 2.61645 104.813 1.58545C106.149 0.554453 107.743 0.0384521 109.594 0.0384521C111.445 0.0384521 113.039 0.554453 114.375 1.58545C115.711 2.61645 116.73 4.11445 117.434 6.07645C118.137 8.03945 118.489 10.3865 118.489 13.1165C118.489 15.8825 118.14 18.2435 117.443 20.2005C116.746 22.1585 115.729 23.6455 114.393 24.6655C113.057 25.6855 111.457 26.1945 109.594 26.1945C107.718 26.1955 106.116 25.6855 104.786 24.6655ZM112.722 22.1875C113.589 21.3905 114.251 20.2255 114.708 18.6895C115.165 17.1545 115.394 15.2965 115.394 13.1175C115.394 10.9385 115.165 9.07445 114.708 7.52745C114.251 5.98045 113.589 4.80245 112.722 3.99445C111.855 3.18645 110.812 2.78145 109.593 2.78145C108.374 2.78145 107.328 3.18545 106.455 3.99445C105.582 4.80345 104.914 5.98045 104.451 7.52745C103.988 9.07445 103.757 10.9375 103.757 13.1175C103.757 15.2975 103.986 17.1545 104.443 18.6895C104.9 20.2255 105.565 21.3905 106.438 22.1875C107.311 22.9845 108.363 23.3825 109.593 23.3825C110.812 23.3825 111.855 22.9845 112.722 22.1875Z" fill="white"/>
<path d="M134.484 3.37845V3.20245H121.019V0.39045H137.753V3.34345L126.116 25.8434H122.811L134.484 3.37845Z" fill="white"/>
<path d="M152.835 14.5235H141.69V11.7465H152.835V14.5235Z" fill="white"/>
<path d="M160.965 24.6655C159.635 23.6455 158.621 22.1585 157.924 20.2005C157.227 18.2435 156.878 15.8825 156.878 13.1165C156.878 10.3865 157.23 8.03945 157.933 6.07645C158.636 4.11445 159.656 2.61645 160.992 1.58545C162.328 0.554453 163.922 0.0384521 165.773 0.0384521C167.624 0.0384521 169.218 0.554453 170.554 1.58545C171.89 2.61645 172.909 4.11445 173.613 6.07645C174.316 8.03945 174.668 10.3865 174.668 13.1165C174.668 15.8825 174.319 18.2435 173.622 20.2005C172.925 22.1585 171.908 23.6455 170.572 24.6655C169.236 25.6855 167.636 26.1945 165.773 26.1945C163.898 26.1955 162.295 25.6855 160.965 24.6655ZM168.902 22.1875C169.769 21.3905 170.431 20.2255 170.888 18.6895C171.345 17.1545 171.574 15.2965 171.574 13.1175C171.574 10.9385 171.345 9.07445 170.888 7.52745C170.431 5.98045 169.769 4.80245 168.902 3.99445C168.035 3.18645 166.992 2.78145 165.773 2.78145C164.554 2.78145 163.508 3.18545 162.635 3.99445C161.762 4.80345 161.094 5.98045 160.631 7.52745C160.168 9.07445 159.937 10.9375 159.937 13.1175C159.937 15.2975 160.166 17.1545 160.623 18.6895C161.08 20.2255 161.745 21.3905 162.618 22.1875C163.491 22.9845 164.543 23.3825 165.773 23.3825C166.992 23.3825 168.035 22.9845 168.902 22.1875Z" fill="white"/>
<path d="M183.061 25.3245C181.825 24.7445 180.84 23.9425 180.108 22.9165C179.376 21.8915 178.98 20.7345 178.921 19.4445H181.98C182.062 20.1945 182.343 20.8715 182.824 21.4745C183.304 22.0785 183.926 22.5535 184.687 22.8985C185.449 23.2445 186.281 23.4174 187.183 23.4174C188.261 23.4174 189.234 23.1715 190.101 22.6795C190.968 22.1875 191.648 21.5135 192.14 20.6585C192.632 19.8035 192.878 18.8474 192.878 17.7934C192.878 16.7034 192.623 15.7225 192.113 14.8495C191.603 13.9765 190.9 13.2914 190.004 12.7924C189.108 12.2944 188.097 12.0395 186.972 12.0275C184.71 11.9925 183.128 12.7545 182.226 14.3125H179.167L180.96 0.39045H194.741V3.20245H183.596L182.647 10.6555H182.893C183.467 10.2105 184.164 9.85345 184.985 9.58345C185.805 9.31345 186.655 9.17945 187.534 9.17945C189.128 9.17945 190.566 9.54645 191.849 10.2785C193.132 11.0105 194.14 12.0275 194.872 13.3285C195.604 14.6295 195.971 16.0944 195.971 17.7234C195.971 19.3404 195.59 20.7935 194.828 22.0825C194.066 23.3725 193.017 24.3794 191.682 25.1054C190.346 25.8324 188.846 26.1955 187.182 26.1955C185.671 26.1955 184.297 25.9055 183.061 25.3245Z" fill="white"/>
<path d="M41.786 43.7135C43.52 44.3935 44.874 45.3515 45.847 46.5875C46.82 47.8245 47.306 49.2505 47.306 50.8675C47.306 52.3905 46.881 53.7444 46.032 54.9284C45.182 56.1124 43.996 57.0554 42.472 57.7584C40.948 58.4614 39.197 58.8775 37.216 59.0065V65.5634H50.259V67.8835H21.642V65.5634H34.509V59.0065C32.54 58.8775 30.794 58.4595 29.271 57.7495C27.748 57.0405 26.564 56.0975 25.72 54.9195C24.876 53.7415 24.454 52.3915 24.454 50.8675C24.454 49.2505 24.94 47.8245 25.913 46.5875C26.886 45.3515 28.239 44.3935 29.974 43.7135C31.708 43.0345 33.677 42.6884 35.88 42.6764C38.083 42.6874 40.051 43.0335 41.786 43.7135ZM31.371 45.7085C30.041 46.2075 29.001 46.9034 28.251 47.8004C27.501 48.6974 27.126 49.7195 27.126 50.8675C27.126 52.0515 27.501 53.0944 28.251 53.9964C29.001 54.8994 30.038 55.5965 31.362 56.0885C32.686 56.5805 34.192 56.8334 35.88 56.8444C37.568 56.8334 39.073 56.5805 40.398 56.0885C41.723 55.5965 42.759 54.8994 43.509 53.9964C44.259 53.0944 44.634 52.0515 44.634 50.8675C44.634 49.7195 44.259 48.6964 43.509 47.8004C42.759 46.9044 41.719 46.2075 40.389 45.7085C39.059 45.2105 37.556 44.9615 35.88 44.9615C34.204 44.9615 32.701 45.2105 31.371 45.7085Z" fill="white"/>
<path d="M81.372 63.1725H68.329V71.9615H65.622V63.1725H52.754V60.8875H81.371L81.372 63.1725ZM79.579 46.5084H54.231V44.2235H65.622V40.4615H68.329V44.2235H79.579V46.5084ZM72.468 48.9075C73.997 49.3115 75.166 49.9074 75.975 50.6914C76.784 51.4764 77.188 52.4254 77.188 53.5394C77.188 54.6294 76.781 55.5605 75.966 56.3345C75.151 57.1085 73.983 57.6994 72.459 58.1094C70.936 58.5204 69.113 58.7315 66.992 58.7425C64.859 58.7315 63.028 58.5204 61.499 58.1094C59.97 57.6994 58.801 57.1075 57.992 56.3345C57.183 55.5615 56.785 54.6294 56.797 53.5394C56.785 52.4264 57.184 51.4774 57.992 50.6914C58.801 49.9064 59.97 49.3115 61.499 48.9075C63.028 48.5035 64.859 48.3014 66.992 48.3014C69.114 48.3014 70.939 48.5035 72.468 48.9075ZM61.552 51.2365C60.257 51.7875 59.621 52.5544 59.645 53.5394C59.633 54.5004 60.269 55.2504 61.552 55.7894C62.835 56.3284 64.649 56.5985 66.992 56.5985C69.301 56.5985 71.099 56.3284 72.388 55.7894C73.677 55.2504 74.327 54.5004 74.339 53.5394C74.316 52.5554 73.659 51.7885 72.37 51.2365C71.081 50.6855 69.288 50.4104 66.991 50.4104C64.661 50.4104 62.847 50.6855 61.552 51.2365Z" fill="white"/>
<path d="M97.552 67.8654C96.222 66.8454 95.208 65.3584 94.511 63.4004C93.814 61.4434 93.465 59.0824 93.465 56.3164C93.465 53.5864 93.817 51.2395 94.52 49.2765C95.223 47.3145 96.243 45.8164 97.579 44.7854C98.915 43.7544 100.509 43.2385 102.36 43.2385C104.211 43.2385 105.805 43.7544 107.141 44.7854C108.477 45.8164 109.496 47.3145 110.2 49.2765C110.903 51.2395 111.255 53.5864 111.255 56.3164C111.255 59.0824 110.906 61.4434 110.209 63.4004C109.512 65.3584 108.495 66.8454 107.159 67.8654C105.823 68.8854 104.223 69.3945 102.36 69.3945C100.485 69.3945 98.882 68.8854 97.552 67.8654ZM105.489 65.3875C106.356 64.5905 107.018 63.4255 107.475 61.8895C107.932 60.3545 108.161 58.4964 108.161 56.3174C108.161 54.1384 107.932 52.2745 107.475 50.7275C107.018 49.1805 106.356 48.0025 105.489 47.1945C104.622 46.3865 103.579 45.9814 102.36 45.9814C101.141 45.9814 100.095 46.3855 99.222 47.1945C98.349 48.0035 97.681 49.1805 97.218 50.7275C96.755 52.2745 96.524 54.1374 96.524 56.3174C96.524 58.4974 96.753 60.3545 97.21 61.8895C97.667 63.4255 98.332 64.5905 99.205 65.3875C100.078 66.1845 101.13 66.5825 102.36 66.5825C103.579 66.5825 104.622 66.1845 105.489 65.3875Z" fill="white"/>
<path d="M124.473 69.0435H121.274V46.8945H121.133L114.945 51.0075V47.8085L121.273 43.5895H124.472L124.473 69.0435Z" fill="white"/>
<path d="M132.304 51.2275C131.958 51.0225 131.683 50.7445 131.478 50.3925C131.273 50.0405 131.176 49.6605 131.188 49.2495C131.176 48.8515 131.273 48.4784 131.478 48.1334C131.683 47.7884 131.958 47.5125 132.304 47.3075C132.65 47.1025 133.028 46.9995 133.438 46.9995C133.836 46.9995 134.209 47.1025 134.554 47.3075C134.9 47.5125 135.175 47.7884 135.38 48.1334C135.585 48.4794 135.688 48.8515 135.688 49.2495C135.688 49.6605 135.585 50.0405 135.38 50.3925C135.175 50.7445 134.9 51.0225 134.554 51.2275C134.208 51.4325 133.836 51.5354 133.438 51.5354C133.028 51.5354 132.65 51.4325 132.304 51.2275ZM132.304 65.3605C131.958 65.1555 131.683 64.8775 131.478 64.5255C131.273 64.1735 131.176 63.7935 131.188 63.3825C131.176 62.9845 131.273 62.6115 131.478 62.2665C131.683 61.9215 131.958 61.6454 132.304 61.4404C132.65 61.2354 133.028 61.1325 133.438 61.1325C133.836 61.1325 134.209 61.2354 134.554 61.4404C134.9 61.6454 135.175 61.9215 135.38 62.2665C135.585 62.6125 135.688 62.9845 135.688 63.3825C135.688 63.7935 135.585 64.1735 135.38 64.5255C135.175 64.8775 134.9 65.1555 134.554 65.3605C134.208 65.5655 133.836 65.6685 133.438 65.6685C133.028 65.6685 132.65 65.5655 132.304 65.3605Z" fill="white"/>
<path d="M149.399 69.0435H146.2V46.8945H146.059L139.871 51.0075V47.8085L146.199 43.5895H149.398V69.0435H149.399Z" fill="white"/>
<path d="M160.359 68.5244C159.123 67.9444 158.138 67.1425 157.406 66.1165C156.674 65.0915 156.278 63.9345 156.219 62.6445H159.278C159.36 63.3945 159.641 64.0715 160.122 64.6745C160.602 65.2785 161.224 65.7534 161.985 66.0984C162.747 66.4444 163.579 66.6174 164.481 66.6174C165.559 66.6174 166.532 66.3715 167.399 65.8795C168.266 65.3875 168.946 64.7134 169.438 63.8584C169.93 63.0034 170.176 62.0475 170.176 60.9935C170.176 59.9035 169.921 58.9224 169.411 58.0494C168.901 57.1764 168.198 56.4915 167.302 55.9925C166.406 55.4945 165.395 55.2395 164.27 55.2275C162.008 55.1925 160.426 55.9545 159.524 57.5125H156.465L158.258 43.5905H172.039V46.4025H160.894L159.945 53.8554H160.191C160.765 53.4104 161.462 53.0535 162.283 52.7835C163.103 52.5135 163.953 52.3795 164.832 52.3795C166.426 52.3795 167.864 52.7465 169.147 53.4785C170.43 54.2105 171.438 55.2275 172.17 56.5285C172.902 57.8295 173.269 59.2945 173.269 60.9235C173.269 62.5405 172.888 63.9935 172.126 65.2825C171.364 66.5725 170.315 67.5795 168.98 68.3055C167.644 69.0325 166.144 69.3954 164.48 69.3954C162.969 69.3944 161.595 69.1044 160.359 68.5244Z" fill="white"/>
</svg>
