<svg width="90" height="56" viewBox="0 0 90 56" fill="none" xmlns="http://www.w3.org/2000/svg">
<path d="M23.259 1.57526L1.38087 24.5554C-0.460291 26.4892 -0.460291 29.5098 1.38087 31.4446L23.259 54.4249C24.2166 55.4304 25.5491 56 26.9444 56H84.9335C87.7312 56 90 53.7527 90 50.9802V5.01983C90 2.24726 87.7312 0 84.9335 0H26.9444C25.5491 0 24.2156 0.569698 23.259 1.57526Z" fill="#8C9AB7"/>
<path d="M62.8897 27.873L70.0537 20.714C71.6957 19.073 71.6957 16.414 70.0537 14.773C68.4127 13.132 65.7507 13.132 64.1097 14.773L56.9457 21.933L49.7817 14.773C48.1407 13.132 45.4787 13.132 43.8377 14.773C42.1967 16.414 42.1967 19.073 43.8377 20.714L51.0017 27.873L43.8377 35.033C42.1967 36.674 42.1967 39.3329 43.8377 40.9739C45.4787 42.6149 48.1407 42.6149 49.7817 40.9739L56.9457 33.815L64.1097 40.9739C65.7507 42.6149 68.4127 42.6149 70.0537 40.9739C71.6957 39.3339 71.6957 36.674 70.0537 35.033L62.8897 27.873Z" fill="white"/>
</svg>
