<svg width="91" height="56" viewBox="0 0 91 56" fill="none" xmlns="http://www.w3.org/2000/svg">
<path d="M23.8496 1.57526L1.97145 24.5554C0.130285 26.4892 0.130285 29.5098 1.97145 31.4446L23.8496 54.4249C24.8072 55.4304 26.1396 56 27.5349 56H85.5241C88.3218 56 90.5906 53.7527 90.5906 50.9802V28V5.01983C90.5906 2.24726 88.3218 0 85.5241 0H27.5349C26.1396 0 24.8062 0.569698 23.8496 1.57526Z" fill="white"/>
<path d="M63.4803 27.873L70.6443 20.714C72.2863 19.073 72.2863 16.414 70.6443 14.773C69.0033 13.132 66.3412 13.132 64.7002 14.773L57.5363 21.933L50.3723 14.773C48.7313 13.132 46.0693 13.132 44.4283 14.773C42.7873 16.414 42.7873 19.073 44.4283 20.714L51.5923 27.873L44.4283 35.033C42.7873 36.674 42.7873 39.3329 44.4283 40.9739C46.0693 42.6149 48.7313 42.6149 50.3723 40.9739L57.5363 33.815L64.7002 40.9739C66.3412 42.6149 69.0033 42.6149 70.6443 40.9739C72.2863 39.3339 72.2863 36.674 70.6443 35.033L63.4803 27.873Z" fill="#8C9AB7"/>
</svg>
