<svg width="90" height="90" viewBox="0 0 90 90" fill="none" xmlns="http://www.w3.org/2000/svg">
<path d="M15 15H26.25L33.75 7.5H56.25L63.75 15H75C76.9891 15 78.8968 15.7902 80.3033 17.1967C81.7098 18.6032 82.5 20.5109 82.5 22.5V67.5C82.5 69.4891 81.7098 71.3968 80.3033 72.8033C78.8968 74.2098 76.9891 75 75 75H15C13.0109 75 11.1032 74.2098 9.6967 72.8033C8.29018 71.3968 7.5 69.4891 7.5 67.5V22.5C7.5 20.5109 8.29018 18.6032 9.6967 17.1967C11.1032 15.7902 13.0109 15 15 15ZM45 26.25C40.0272 26.25 35.2581 28.2254 31.7417 31.7417C28.2254 35.2581 26.25 40.0272 26.25 45C26.25 49.9728 28.2254 54.7419 31.7417 58.2583C35.2581 61.7746 40.0272 63.75 45 63.75C49.9728 63.75 54.7419 61.7746 58.2583 58.2583C61.7746 54.7419 63.75 49.9728 63.75 45C63.75 40.0272 61.7746 35.2581 58.2583 31.7417C54.7419 28.2254 49.9728 26.25 45 26.25ZM45 33.75C47.9837 33.75 50.8452 34.9353 52.955 37.045C55.0647 39.1548 56.25 42.0163 56.25 45C56.25 47.9837 55.0647 50.8452 52.955 52.955C50.8452 55.0647 47.9837 56.25 45 56.25C42.0163 56.25 39.1548 55.0647 37.045 52.955C34.9353 50.8452 33.75 47.9837 33.75 45C33.75 42.0163 34.9353 39.1548 37.045 37.045C39.1548 34.9353 42.0163 33.75 45 33.75Z" fill="white"/>
</svg>
