<svg width="130" height="130" viewBox="0 0 130 130" fill="none" xmlns="http://www.w3.org/2000/svg">
<g clip-path="url(#clip0_152_208)">
<path d="M65 0C82.2391 0 98.7721 6.8482 110.962 19.0381C123.152 31.2279 130 47.7609 130 65C130 82.2391 123.152 98.7721 110.962 110.962C98.7721 123.152 82.2391 130 65 130C47.7609 130 31.2279 123.152 19.0381 110.962C6.8482 98.7721 0 82.2391 0 65C0 47.7609 6.8482 31.2279 19.0381 19.0381C31.2279 6.8482 47.7609 0 65 0ZM58.9062 30.4688V65C58.9062 67.0312 59.9219 68.9355 61.623 70.0781L85.998 86.3281C88.791 88.207 92.5742 87.4453 94.4531 84.627C96.332 81.8086 95.5703 78.0508 92.752 76.1719L71.0938 61.75V30.4688C71.0938 27.0918 68.377 24.375 65 24.375C61.623 24.375 58.9062 27.0918 58.9062 30.4688Z" fill="url(#paint0_linear_152_208)"/>
</g>
<defs>
<linearGradient id="paint0_linear_152_208" x1="65" y1="0" x2="65" y2="130" gradientUnits="userSpaceOnUse">
<stop stop-color="#F9B8C8"/>
<stop offset="1" stop-color="#FF2457"/>
</linearGradient>
<clipPath id="clip0_152_208">
<rect width="130" height="130" fill="white"/>
</clipPath>
</defs>
</svg>
