<svg width="110" height="113" viewBox="0 0 110 113" fill="none" xmlns="http://www.w3.org/2000/svg">
<path d="M39.2856 60.196H70.7142V100.327H39.2856V60.196Z" fill="url(#paint0_linear_70_135)"/>
<path d="M60.5315 18.0509C58.9626 16.7652 57.0114 16.0645 55.0001 16.0645C52.9887 16.0645 51.0375 16.7652 49.4686 18.0509L19.0222 43.0001C17.9898 43.8461 17.1566 44.9182 16.5841 46.1372C16.0116 47.3562 15.7144 48.691 15.7144 50.043V91.2972C15.7144 93.692 16.6456 95.9886 18.3033 97.6819C19.961 99.3753 22.2093 100.327 24.5536 100.327H43.2144V69.2254C43.2144 66.4564 45.4144 64.2091 48.1251 64.2091H61.8751C64.5858 64.2091 66.7858 66.4564 66.7858 69.2254V100.327H85.4465C87.7908 100.327 90.0391 99.3753 91.6968 97.6819C93.3545 95.9886 94.2858 93.692 94.2858 91.2972V50.043C94.2858 48.691 93.9885 47.3562 93.416 46.1372C92.8435 44.9182 92.0103 43.8461 90.9779 43.0001L60.5315 18.0509Z" fill="url(#paint1_linear_70_135)"/>
<path fill-rule="evenodd" clip-rule="evenodd" d="M55 22.9347L16.8378 54.4894C15.8243 55.3135 14.5331 55.6952 13.2454 55.5513C11.9577 55.4074 10.7777 54.7496 9.96265 53.7211C9.14755 52.6926 8.76329 51.3768 8.89356 50.0603C9.02384 48.7437 9.6581 47.5331 10.6582 46.692L50.6786 13.6043C51.9025 12.5924 53.4293 12.0403 55.0039 12.0403C56.5785 12.0403 58.1054 12.5924 59.3293 13.6043L99.3457 46.692C100.346 47.5331 100.98 48.7437 101.11 50.0603C101.241 51.3768 100.856 52.6926 100.041 53.7211C99.2262 54.7496 98.0462 55.4074 96.7585 55.5513C95.4708 55.6952 94.1796 55.3135 93.1661 54.4894L55 22.9347Z" fill="url(#paint2_linear_70_135)"/>
<defs>
<linearGradient id="paint0_linear_70_135" x1="54.9999" y1="60.196" x2="29.0027" y2="105.456" gradientUnits="userSpaceOnUse">
<stop stop-color="#7D97CD"/>
<stop offset="1" stop-color="#26478B"/>
</linearGradient>
<linearGradient id="paint1_linear_70_135" x1="23.214" y1="11.943" x2="104.532" y2="73.5778" gradientUnits="userSpaceOnUse">
<stop stop-color="white"/>
<stop offset="1" stop-color="#B9CDF8"/>
</linearGradient>
<linearGradient id="paint2_linear_70_135" x1="40.0832" y1="1.68958" x2="58.3897" y2="54.1427" gradientUnits="userSpaceOnUse">
<stop stop-color="#7D97CD"/>
<stop offset="1" stop-color="#26478B"/>
</linearGradient>
</defs>
</svg>
