<svg width="76" height="76" viewBox="0 0 76 76" fill="none" xmlns="http://www.w3.org/2000/svg">
<rect x="75.5" y="75.5" width="75" height="75" rx="37.5" transform="rotate(180 75.5 75.5)" fill="white"/>
<rect x="75.5" y="75.5" width="75" height="75" rx="37.5" transform="rotate(180 75.5 75.5)" stroke="#EAECF0"/>
<path d="M40.125 48.8125L38.75 50.1875C38.125 50.75 37.1875 50.75 36.625 50.1875L24.4375 38.0625C23.875 37.4375 23.875 36.5 24.4375 35.9375L36.625 23.75C37.1875 23.1875 38.125 23.1875 38.75 23.75L40.125 25.125C40.6875 25.75 40.6875 26.6875 40.125 27.3125L32.5625 34.5L50.5 34.5C51.375 34.5 52 35.125 52 36L52 38C52 38.8125 51.375 39.5 50.5 39.5L32.5625 39.5L40.125 46.625C40.6875 47.25 40.75 48.1875 40.125 48.8125Z" fill="#004F99"/>
</svg>
