<svg width="78" height="123" viewBox="0 0 78 123" fill="none" xmlns="http://www.w3.org/2000/svg">
<path d="M69.409 61.0139C68.831 60.9629 66.938 60.9108 64.997 62.1218L65.011 61.9288C65.012 61.9108 65.013 61.8919 65.014 61.8739C65.107 59.7289 64.353 57.6719 62.891 56.0819C61.429 54.4919 59.441 53.5649 57.292 53.4729C55.135 53.3839 53.05 54.2299 51.425 55.8639C51.192 56.0979 50.9791 56.3478 50.7751 56.6058C50.2471 52.9148 47.1871 49.9599 43.3141 49.7029C40.7641 49.5329 37.939 50.6319 36.049 52.5599V33.0459C36.049 28.6009 32.426 24.9849 27.972 24.9849C23.518 24.9849 19.8951 28.6009 19.8951 33.0459V69.7319C8.98506 73.6429 9.14404 88.9689 9.15604 89.5889V93.0929C9.15604 93.1329 9.15704 93.1739 9.16004 93.2129C9.68504 101.433 13.125 108.905 18.844 114.252C24.461 119.503 31.8971 122.396 39.7801 122.396H46.651C63.365 122.396 76.6311 109.536 76.8531 93.1539L77.384 76.6788C77.385 76.6588 77.385 76.6379 77.385 76.6179V69.0759C77.383 64.6649 73.815 61.0699 69.409 61.0139ZM73.5901 76.5869L73.0591 93.0669C72.8651 107.39 61.264 118.609 46.649 118.609H39.7781C25.1981 118.609 13.9231 107.855 12.9471 93.0309V89.5538C12.9451 89.4278 12.84 77.6699 19.894 73.8589V85.1979C19.894 86.2429 20.743 87.0908 21.79 87.0908C22.837 87.0908 23.686 86.2439 23.686 85.1979V33.0449C23.686 30.6869 25.608 28.7689 27.97 28.7689C30.332 28.7689 32.2541 30.6869 32.2541 33.0449V69.1879C32.2541 70.1839 33.027 71.0089 34.022 71.0759C35.018 71.1519 35.895 70.4299 36.029 69.4429L37.644 57.5929C37.65 57.5499 37.654 57.5069 37.657 57.4629C37.812 55.1349 40.7491 53.3229 43.0591 53.4799C45.4161 53.6359 47.207 55.6779 47.05 58.0299C47.047 58.0719 47.0461 58.1149 47.0461 58.1569L47.06 71.0249C47.061 72.0689 47.91 72.9159 48.956 72.9159H48.958C49.769 72.9149 50.4551 72.4038 50.7261 71.6888C50.9531 71.4328 51.116 71.1159 51.177 70.7529L52.6371 61.9929C52.6501 61.9169 52.6581 61.8409 52.661 61.7639C52.712 60.5869 53.2421 59.4079 54.1141 58.5309C54.9781 57.6619 56.046 57.2009 57.126 57.2559C58.262 57.3049 59.3161 57.7968 60.0931 58.6418C60.8641 59.4808 61.2651 60.5609 61.2231 61.6859L60.5771 70.5889C60.5221 71.0989 60.4841 71.6269 60.4631 72.1749C60.423 73.2069 61.219 74.0798 62.253 74.1378C63.288 74.1958 64.175 73.4149 64.25 72.3849L64.355 70.9448C64.627 68.4948 65.362 66.6959 66.511 65.6989C67.707 64.6609 69.023 64.7799 69.049 64.7819C69.134 64.7929 69.2191 64.7988 69.3041 64.7988C71.6661 64.7988 73.589 66.7168 73.589 69.0748V76.5869H73.5901Z" fill="#ECCF63"/>
<path d="M41.353 37.6121C42.269 38.1181 43.423 37.788 43.931 36.873C45.444 34.146 46.244 31.048 46.244 27.913C46.244 17.703 37.922 9.39697 27.693 9.39697C17.464 9.39697 9.14099 17.703 9.14099 27.913C9.14099 31.329 10.081 34.667 11.86 37.568C12.218 38.151 12.841 38.473 13.479 38.473C13.816 38.473 14.158 38.383 14.467 38.194C15.36 37.648 15.641 36.4829 15.094 35.5909C13.68 33.2859 12.933 30.631 12.933 27.913C12.933 19.791 19.554 13.183 27.692 13.183C35.83 13.183 42.451 19.791 42.451 27.913C42.451 30.408 41.815 32.871 40.613 35.038C40.105 35.953 40.436 37.1051 41.353 37.6121Z" fill="#ECCF63"/>
<path d="M14.066 50.984C14.701 50.984 15.321 50.666 15.68 50.088C16.232 49.199 15.957 48.0331 15.067 47.4821C8.11602 43.1841 3.966 35.7521 3.966 27.6021C3.966 14.7171 14.469 4.23401 27.38 4.23401C40.29 4.23401 50.794 14.7171 50.794 27.6021C50.794 32.869 49.081 37.84 45.84 41.979C45.195 42.803 45.341 43.993 46.166 44.636C46.991 45.279 48.183 45.1331 48.828 44.3101C52.596 39.4981 54.587 33.7211 54.587 27.6021C54.587 12.6291 42.382 0.447998 27.381 0.447998C12.38 0.447998 0.174011 12.6291 0.174011 27.6021C0.174011 37.0721 4.99498 45.707 13.071 50.7C13.38 50.892 13.725 50.984 14.066 50.984Z" fill="#ECCF63"/>
</svg>
