<svg width="76" height="76" viewBox="0 0 76 76" fill="none" xmlns="http://www.w3.org/2000/svg">
<rect x="0.5" y="0.5" width="75" height="75" rx="37.5" fill="white"/>
<rect x="0.5" y="0.5" width="75" height="75" rx="37.5" stroke="#EAECF0"/>
<path d="M35.875 27.1875L37.25 25.8125C37.875 25.25 38.8125 25.25 39.375 25.8125L51.5625 37.9375C52.125 38.5625 52.125 39.5 51.5625 40.0625L39.375 52.25C38.8125 52.8125 37.875 52.8125 37.25 52.25L35.875 50.875C35.3125 50.25 35.3125 49.3125 35.875 48.6875L43.4375 41.5H25.5C24.625 41.5 24 40.875 24 40V38C24 37.1875 24.625 36.5 25.5 36.5H43.4375L35.875 29.375C35.3125 28.75 35.25 27.8125 35.875 27.1875Z" fill="#004F99"/>
</svg>
