<svg width="130" height="130" viewBox="0 0 130 130" fill="none" xmlns="http://www.w3.org/2000/svg">
<path d="M65 5C31.915 5 5 31.915 5 65C5 98.085 31.915 125 65 125C98.085 125 125 98.085 125 65H111.5C111.5 90.64 90.64 111.5 65 111.5C39.36 111.5 18.5 90.64 18.5 65C18.5 39.36 39.36 18.5 65 18.5V5ZM102 17.915L64.475 64.77L46.94 50.4L36.93 62.58L60.635 82.02C61.4403 82.6843 62.3698 83.1816 63.3693 83.483C64.3688 83.7843 65.4183 83.8837 66.4566 83.7752C67.4949 83.6668 68.5013 83.3527 69.4169 82.8514C70.3326 82.35 71.1393 81.6713 71.79 80.855L114.31 27.77L102 17.915Z" fill="url(#paint0_linear_79_93)"/>
<defs>
<linearGradient id="paint0_linear_79_93" x1="32.5" y1="17.5" x2="105.5" y2="111" gradientUnits="userSpaceOnUse">
<stop stop-color="#91A7D4"/>
<stop offset="1" stop-color="#004F99"/>
</linearGradient>
</defs>
</svg>
