<svg width="110" height="110" viewBox="0 0 110 110" fill="none" xmlns="http://www.w3.org/2000/svg">
<g clip-path="url(#clip0_70_141)">
<path d="M100.194 11.9023L73.339 32.2781C72.1617 34.4609 72.6515 36.5664 73.4335 38.1906C73.8718 39.1016 73.3304 40.193 72.3421 40.425C68.0109 41.4477 59.6062 42.7023 56.0312 46.2773C56.0312 46.2773 9.78823 89.6328 7.33041 91.9016C4.8726 94.1703 3.53198 97.4102 4.8726 100.65C5.63745 102.506 7.51948 104.569 9.95151 105.42C14.8671 107.138 17.4624 106.03 22.1546 101.338C22.1546 101.338 69.9531 55.1891 80.3945 45.2031C81.3398 44.2922 82.5257 43.6992 83.7976 43.3898C85.0695 43.0805 86.8913 42.3414 88.6703 40.5539L101.793 27.3453C107.319 21.8195 103.494 15.2109 100.194 11.9023Z" fill="#26478B"/>
<path d="M74.3617 37.039C78.607 41.2843 83.282 38.3797 84.9062 36.7554L100.152 21.5101C101.776 19.8859 103.898 15.6148 100.186 11.9023C97.7796 9.49606 93.5945 9.59059 90.9132 12.2718L75.6765 27.5172C74.0437 29.1414 71.5085 34.1773 74.3617 37.039Z" fill="#7D97CD"/>
<path d="M90.9046 5.27661L88.189 9.77974C88.189 9.77974 94.4882 15.2883 95.7944 16.311C96.7655 17.0672 97.6249 17.0071 98.321 16.311C99.0171 15.6149 99.0171 14.4805 98.321 13.7844C97.6249 13.0883 90.9046 5.27661 90.9046 5.27661Z" fill="#69B6C9"/>
<path d="M78.5098 36.1111L69.4004 27.0017L89.2116 7.19312L98.3209 16.3025L78.5098 36.1111Z" fill="#69B6C9"/>
<path d="M72.3249 25.6438L67.8218 28.3594C67.8218 28.3594 75.0147 34.7618 76.321 35.7844C77.2921 36.5407 78.1515 36.4805 78.8476 35.7844C79.5437 35.0883 79.5437 33.954 78.8476 33.2579C78.1515 32.5532 72.3249 25.6438 72.3249 25.6438Z" fill="#69B6C9"/>
<path d="M90.4838 7.33911L87.7939 11.8336C87.7939 11.8336 95.133 18.3821 96.4479 19.4047C97.4189 20.161 98.2783 20.1008 98.9744 19.4047C99.6705 18.7086 99.6705 17.5743 98.9744 16.8782C98.2783 16.1821 90.4838 7.33911 90.4838 7.33911Z" fill="#A5CEDA"/>
<path d="M87.811 11.2063L84.2017 14.8157C84.2017 14.8157 91.8415 21.6735 93.1563 22.6875C94.1274 23.4438 94.9868 23.3836 95.6829 22.6875C96.379 21.9915 96.379 20.8571 95.6829 20.161C94.9868 19.4649 87.811 11.2063 87.811 11.2063Z" fill="#A5CEDA"/>
<path d="M84.4766 14.4546L80.8672 18.064C80.8672 18.064 88.5586 24.9647 89.8648 25.9788C90.8359 26.7351 91.6953 26.6749 92.3914 25.9788C93.0875 25.2827 93.0875 24.1483 92.3914 23.4522C91.6953 22.7562 84.4766 14.4546 84.4766 14.4546Z" fill="#A5CEDA"/>
<path d="M80.7725 17.3335L77.1631 20.9429C77.1631 20.9429 85.267 28.2562 86.5732 29.2702C87.5443 30.0265 88.4037 29.9663 89.0998 29.2702C89.7959 28.5741 89.7959 27.4397 89.0998 26.7437C88.4037 26.0476 80.7725 17.3335 80.7725 17.3335Z" fill="#A5CEDA"/>
<path d="M77.4897 20.625L73.8804 24.2344C73.8804 24.2344 81.9843 31.5477 83.2905 32.5617C84.2616 33.318 85.121 33.2578 85.8171 32.5617C86.5132 31.8656 86.5132 30.7312 85.8171 30.0352C85.121 29.3391 77.4897 20.625 77.4897 20.625Z" fill="#A5CEDA"/>
<path d="M74.9805 24.6899L70.125 27.2767C70.125 27.2767 78.693 34.822 79.9992 35.8446C80.9703 36.6009 81.8297 36.5407 82.5258 35.8446C83.2219 35.1485 83.2219 34.0142 82.5258 33.3181C81.8297 32.622 74.9805 24.6899 74.9805 24.6899Z" fill="#A5CEDA"/>
<path d="M68.1743 25.3086C68.3547 24.518 67.5641 23.0914 68.2344 22.1977C68.7758 21.4758 69.2227 21.6047 69.7555 21.6047C70.5633 21.6047 71.2508 20.9172 71.2508 20.1094C71.2508 19.5852 71.3539 19.0782 71.6805 18.7516C72.0071 18.425 72.5141 18.3219 73.0383 18.3219C73.8461 18.3219 74.5336 17.6344 74.5336 16.8266C74.5336 16.3024 74.6368 15.7953 74.9633 15.4688C75.2899 15.1422 75.7969 15.0391 76.3211 15.0391C77.1289 15.0391 77.8164 14.3516 77.8164 13.5438C77.8164 13.0196 77.9196 12.5125 78.2461 12.186C78.5727 11.8594 79.0797 11.7563 79.6039 11.7563C80.4117 11.7563 81.0993 11.0688 81.0993 10.261C81.0993 9.73675 81.2024 9.22972 81.5289 8.90316C81.8555 8.57659 82.3625 8.47347 82.8867 8.47347C83.6946 8.47347 84.3821 7.78597 84.3821 6.97816C84.3821 6.45394 84.4938 5.73206 85.1125 5.34534C86.1008 4.74378 87.1578 5.51722 87.9399 5.51722C88.7649 5.51722 89.6844 4.18519 90.7328 5.16487C91.7297 6.093 90.7071 7.35628 90.793 7.95784C90.8703 8.49066 91.575 9.65081 91.0336 10.6821C90.6125 11.4813 89.6758 11.7391 89.1516 11.7477C88.3438 11.7477 87.6563 12.4352 87.6563 13.243C87.6563 13.7672 87.5532 14.2743 87.2266 14.6008C86.9 14.9274 86.393 15.0305 85.8688 15.0305C85.061 15.0305 84.3735 15.718 84.3735 16.5258C84.3735 17.05 84.2703 17.5571 83.9438 17.8836C83.6172 18.2102 83.1102 18.3133 82.586 18.3133C81.7782 18.3133 81.0907 19.0008 81.0907 19.8086C81.0907 20.3328 80.9875 20.8399 80.661 21.1664C80.3344 21.493 79.8274 21.5961 79.3032 21.5961C78.4953 21.5961 77.8078 22.2836 77.8078 23.0914C77.8078 23.6157 77.7047 24.1227 77.3782 24.4492C77.0516 24.7758 76.5446 24.8789 76.0203 24.8789C75.2125 24.8789 74.525 25.5664 74.525 26.3742C74.525 26.8985 74.3188 27.6547 73.8375 27.9899C72.2992 29.0641 71.2422 27.5688 70.5032 27.8438C69.9961 28.0328 68.6555 29.2188 67.6758 28.1617C66.6016 27.0102 68.0883 25.7125 68.1743 25.3086Z" fill="url(#paint0_linear_70_141)"/>
<path d="M6.11013 100.298C9.64216 103.83 14.5836 100.951 16.3539 99.1804C17.7289 97.8054 62.6226 53.3155 62.6226 53.3155C67.014 48.9241 68.5437 47.7296 66.9281 45.4522C65.3125 43.1749 58.8672 43.4499 55.2922 47.0335C55.2922 47.0335 10.1234 89.0483 8.17263 90.9991C6.22185 92.9499 3.14529 97.3327 6.11013 100.298Z" fill="#7D97CD"/>
<g filter="url(#filter0_d_70_141)">
<rect x="60" y="59" width="48" height="48" rx="24" fill="white"/>
<path d="M81.21 90.54L75 84.33L77.83 81.5L81.21 84.89L91.09 75L93.92 77.83L81.21 90.54Z" fill="#26478B"/>
</g>
</g>
<defs>
<filter id="filter0_d_70_141" x="60" y="59" width="52" height="52" filterUnits="userSpaceOnUse" color-interpolation-filters="sRGB">
<feFlood flood-opacity="0" result="BackgroundImageFix"/>
<feColorMatrix in="SourceAlpha" type="matrix" values="0 0 0 0 0 0 0 0 0 0 0 0 0 0 0 0 0 0 127 0" result="hardAlpha"/>
<feOffset dx="2" dy="2"/>
<feGaussianBlur stdDeviation="1"/>
<feComposite in2="hardAlpha" operator="out"/>
<feColorMatrix type="matrix" values="0 0 0 0 0 0 0 0 0 0 0 0 0 0 0 0 0 0 0.09 0"/>
<feBlend mode="normal" in2="BackgroundImageFix" result="effect1_dropShadow_70_141"/>
<feBlend mode="normal" in="SourceGraphic" in2="effect1_dropShadow_70_141" result="shape"/>
</filter>
<linearGradient id="paint0_linear_70_141" x1="85.134" y1="22.5664" x2="75.5365" y2="12.9689" gradientUnits="userSpaceOnUse">
<stop stop-color="#FAFAFA"/>
<stop offset="0.73" stop-color="#EEEEEE"/>
</linearGradient>
<clipPath id="clip0_70_141">
<rect width="110" height="110" fill="white"/>
</clipPath>
</defs>
</svg>
