<svg width="130" height="130" viewBox="0 0 130 130" fill="none" xmlns="http://www.w3.org/2000/svg">
<g clip-path="url(#clip0_129_135)">
<path d="M65 0C29.1017 0 0 29.1017 0 65C0 100.898 29.1017 130 65 130C100.898 130 130 100.898 130 65C130 29.1017 100.898 0 65 0ZM64.973 104.822C60.8489 104.822 57.5056 101.479 57.5056 97.3549C57.5056 93.2308 60.8489 89.8875 64.973 89.8875C69.097 89.8875 72.4403 93.2308 72.4403 97.3549C72.4403 101.479 69.097 104.822 64.973 104.822ZM72.4403 73.7526C72.4403 77.8767 69.097 81.22 64.973 81.22C60.8489 81.22 57.5056 77.8767 57.5056 73.7526V33.0345C57.5056 28.9105 60.8489 25.5672 64.973 25.5672C69.097 25.5672 72.4403 28.9105 72.4403 33.0345V73.7526Z" fill="#D8211E"/>
</g>
<defs>
<clipPath id="clip0_129_135">
<rect width="130" height="130" fill="white"/>
</clipPath>
</defs>
</svg>
